<?xml version="1.0" encoding="iso-8859-1"?>
<!-- Generator: Adobe Illustrator 19.0.0, SVG Export Plug-In . SVG Version: 6.00 Build 0)  -->
<svg version="1.1" id="Layer_1" xmlns="http://www.w3.org/2000/svg" xmlns:xlink="http://www.w3.org/1999/xlink" x="0px" y="0px"
	 viewBox="0 0 512 512" style="enable-background:new 0 0 512 512;" xml:space="preserve">
<g>
	<g>
		<g>
			<path d="M168.188,243.237c0-20.393-16.597-36.989-36.989-36.989c-20.404,0-36.989,16.597-36.989,36.989
				c0,20.404,16.585,36.989,36.989,36.989C151.591,280.226,168.188,263.641,168.188,243.237z"/>
			<path d="M259.255,246.458c0.098-1.062,0.142-2.134,0.142-3.217c0-1.083-0.043-2.155-0.142-3.217
				c-1.63-18.894-17.537-33.772-36.847-33.772c-20.393,0-36.989,16.597-36.989,36.989c0,12.504,6.225,23.565,15.754,30.272
				c1.729,1.214,3.566,2.286,5.503,3.195c4.77,2.264,10.109,3.523,15.732,3.523c5.624,0,10.962-1.259,15.732-3.523
				c1.936-0.908,3.775-1.981,5.503-3.195C252.341,267.386,258.292,257.628,259.255,246.458z"/>
			<path d="M328.058,276.292c1.378-0.689,2.691-1.454,3.96-2.309c9.9-6.641,16.433-17.942,16.433-30.742
				c0-20.393-16.585-36.989-36.989-36.989c-19.31,0-35.217,14.879-36.847,33.772c-0.098,1.061-0.142,2.133-0.142,3.217
				c0,1.083,0.043,2.155,0.142,3.217c0.941,10.929,6.662,20.513,15.053,26.651c2.112,1.554,4.398,2.877,6.826,3.96
				c4.584,2.035,9.638,3.162,14.967,3.162C317.435,280.231,323.069,278.808,328.058,276.292z"/>
			<path d="M196.151,352.36c11.104-6.4,18.598-18.391,18.598-32.088c0-12.494-6.225-23.554-15.721-30.261
				c-1.739-1.214-3.588-2.297-5.536-3.205c-4.77-2.264-10.109-3.523-15.732-3.523c-20.393,0-36.989,16.585-36.989,36.989
				c0,20.393,16.597,36.989,36.989,36.989c6.674,0,12.943-1.772,18.346-4.868C196.118,352.381,196.14,352.37,196.151,352.36z"/>
			<path d="M248.664,352.36c0.011,0.011,0.033,0.022,0.043,0.033c5.405,3.096,11.673,4.868,18.348,4.868
				c6.674,0,12.943-1.772,18.346-4.868c0.011-0.011,0.033-0.022,0.043-0.033c11.104-6.4,18.598-18.391,18.598-32.088
				c0-12.242-5.973-23.117-15.163-29.856c-2.122-1.554-4.42-2.889-6.859-3.972c-4.583-2.034-9.638-3.162-14.967-3.162
				c-5.623,0-10.962,1.258-15.732,3.523c-1.948,0.908-3.796,1.991-5.536,3.205c-9.496,6.707-15.721,17.767-15.721,30.261
				C230.066,333.969,237.56,345.959,248.664,352.36z"/>
			<path d="M378.175,290.416c-2.122-1.554-4.42-2.889-6.859-3.972c-4.584-2.034-9.638-3.162-14.967-3.162
				c-5.963,0-11.597,1.423-16.597,3.938c-1.368,0.689-2.691,1.455-3.949,2.309c-9.912,6.641-16.443,17.942-16.443,30.742
				c0,13.697,7.494,25.687,18.598,32.088c0.011,0.011,0.033,0.022,0.043,0.033c5.405,3.096,11.673,4.868,18.346,4.868
				c20.393,0,36.989-16.597,36.989-36.989C393.339,308.03,387.366,297.154,378.175,290.416z"/>
			<path d="M259.397,397.597c0-20.393-16.597-36.989-36.989-36.989s-36.989,16.597-36.989,36.989s16.597,36.989,36.989,36.989
				S259.397,417.99,259.397,397.597z"/>
			<path d="M311.702,360.609c-20.393,0-36.989,16.597-36.989,36.989s16.597,36.989,36.989,36.989
				c20.393,0,36.989-16.597,36.989-36.989C348.691,377.205,332.094,360.609,311.702,360.609z"/>
			<path d="M267.055,438.021c-20.393,0-36.989,16.597-36.989,36.989S246.663,512,267.055,512s36.989-16.597,36.989-36.989
				C304.044,454.618,287.448,438.021,267.055,438.021z"/>
			<path d="M400.756,206.252c-20.393,0-36.989,16.597-36.989,36.989c0,12.254,5.984,23.128,15.196,29.867
				c2.112,1.554,4.398,2.877,6.826,3.96c4.583,2.034,9.638,3.162,14.967,3.162c20.403,0,36.989-16.585,36.989-36.989
				C437.745,222.849,421.16,206.252,400.756,206.252z"/>
			<path d="M117.841,86.521l102.139-25.884l16.618-4.212l16.355-4.146c-3.359-6.761-8.599-15.262-16.465-23.489
				C221.456,13.08,193.81-4.501,147.51,1.046l-23.138,2.756l12.615,25.283c-18.5,8.337-44.964,27.055-62.732,68.486l20.698-5.241
				L117.841,86.521z"/>
			<path d="M170.847,157.251l1.532,28.203l21.475-9.026c42.995-18.051,58.344-46.988,63.661-68.081
				c2.231-8.861,2.899-17.044,2.844-23.827c10.382-1.626,21.872-2.747,32.424-2.907c-0.124,0.155-0.257,0.308-0.38,0.464
				c-11.75,14.77-20.032,30.13-25.874,44.275c-11.761,28.5-15.186,55.642-16.049,72.764c-0.175,3.512-0.252,6.597-0.263,9.19
				c-0.001,0.337-0.002,0.666-0.001,0.986c0.007,4.796,0.212,7.691,0.242,8.132l7.943-0.591l8.303-0.623l0.449-0.033l9.343-0.7
				h0.011l6.674-0.504v-0.003c0-0.088-0.154-2.297-0.154-6.147c0-2.549,0.076-5.808,0.307-9.658c0-0.001,0-0.003,0-0.004
				c0.843-14.354,3.851-36.803,13.533-60.292c21.399-51.901,64.318-83.124,127.563-92.784l-4.956-32.449
				c-41.329,6.312-72.42,20.478-95.82,38.069c-22.692-4.971-54.827-1.654-70.701,0.577l7.343,31.962l-16.401,4.152l-16.805,4.265
				l-98.856,25.053l-23.938,6.072l-21.192,5.372C118.77,155.971,150.76,159.122,170.847,157.251z"/>
		</g>
	</g>
</g>
<g>
</g>
<g>
</g>
<g>
</g>
<g>
</g>
<g>
</g>
<g>
</g>
<g>
</g>
<g>
</g>
<g>
</g>
<g>
</g>
<g>
</g>
<g>
</g>
<g>
</g>
<g>
</g>
<g>
</g>
</svg>
